<svg width="1787" height="509" viewBox="0 0 1787 509" fill="none" xmlns="http://www.w3.org/2000/svg">
<path d="M627.453 115.134C664.025 115.134 694.13 127.399 717.768 151.929C741.852 176.459 753.894 210.355 753.894 253.617V459H667.593V264.321C667.593 242.021 661.572 225.073 649.53 213.477C637.488 201.435 621.432 195.414 601.362 195.414C579.062 195.414 561.222 202.327 547.842 216.153C534.462 229.979 527.772 250.718 527.772 278.37V459H441.471V124.5H527.772V161.964C548.734 130.744 581.961 115.134 627.453 115.134ZM1018.92 207.456H943.32V346.608C943.32 358.204 946.219 366.678 952.017 372.03C957.815 377.382 966.289 380.504 977.439 381.396C988.589 381.842 1002.42 381.619 1018.92 380.727V459C959.599 465.69 917.675 460.115 893.145 442.275C869.061 424.435 857.019 392.546 857.019 346.608V207.456H798.816V124.5H857.019V56.9315L943.32 30.8405V124.5H1018.92V207.456ZM1171.29 182.034C1179.32 160.626 1192.48 144.57 1210.76 133.866C1229.5 123.162 1250.23 117.81 1272.98 117.81V214.146C1246.67 211.024 1223.03 216.376 1202.07 230.202C1181.55 244.028 1171.29 266.997 1171.29 299.109V459H1084.99V124.5H1171.29V182.034ZM1565.26 124.5H1651.56V459H1565.26V419.529C1539.39 452.087 1503.04 468.366 1456.21 468.366C1411.61 468.366 1373.26 451.418 1341.15 417.522C1309.48 383.18 1293.65 341.256 1293.65 291.75C1293.65 242.244 1309.48 200.543 1341.15 166.647C1373.26 132.305 1411.61 115.134 1456.21 115.134C1503.04 115.134 1539.39 131.413 1565.26 163.971V124.5ZM1406.04 359.988C1423.43 377.382 1445.51 386.079 1472.27 386.079C1499.03 386.079 1521.11 377.382 1538.5 359.988C1556.34 342.148 1565.26 319.402 1565.26 291.75C1565.26 264.098 1556.34 241.575 1538.5 224.181C1521.11 206.341 1499.03 197.421 1472.27 197.421C1445.51 197.421 1423.43 206.341 1406.04 224.181C1388.64 241.575 1379.95 264.098 1379.95 291.75C1379.95 319.402 1388.64 342.148 1406.04 359.988Z" fill="white"/>
<path d="M311.36 372.864C310.227 372.259 309.241 371.693 308.424 371.182C315.601 369.337 323.426 369.317 331.906 369.317H332.138C346.802 369.318 363.087 369.318 378.345 358.189L378.421 358.134L378.492 358.073C385.516 352.095 388.94 344.272 390.652 333.991C392.338 323.864 392.408 311.032 392.497 294.797L392.499 294.577C392.546 285.957 392.599 276.329 392.889 265.527C392.934 263.835 392.981 262.14 393.029 260.44L393.031 260.382L393.035 260.24C393.605 239.879 394.193 218.893 391.246 200.222C388.287 181.479 381.713 164.699 367.648 153.102L367.538 153.011L367.418 152.933C346.895 139.628 330.063 132.845 311.828 129.36C293.737 125.903 274.337 125.713 248.852 125.463L248.663 125.461C238.461 125.361 227.26 125.251 214.724 124.925L213.006 124.88L212.349 126.467L207.19 138.927L205.797 142.291L209.437 142.383C214.697 142.515 219.611 142.471 224.235 142.416C224.629 142.412 225.021 142.407 225.41 142.402C229.608 142.352 233.552 142.304 237.355 142.383C292.203 143.515 307.997 143.867 337.856 157.248C345.154 161.696 350.485 165.958 354.432 170.696C358.381 175.435 361.03 180.752 362.806 187.409C366.414 200.931 366.38 219.669 366.291 249.863C366.276 254.761 366.261 259.953 366.261 265.46V265.486L366.262 265.513C366.347 269.524 366.443 273.528 366.538 277.486L366.538 277.489C366.96 295.059 367.357 311.673 366.747 324.393C366.442 330.762 365.888 336.03 364.998 339.901C364.553 341.837 364.046 343.325 363.499 344.392C362.943 345.481 362.452 345.925 362.154 346.088C357.724 348.512 354.64 349.784 351.286 350.646C347.861 351.525 344.093 351.995 338.163 352.728L338.161 352.728C335.946 353.002 333.446 353.311 330.583 353.691C326.838 354.187 323.253 354.64 319.847 355.07L319.596 355.101C308.015 356.563 298.327 357.786 291.915 359.622C288.73 360.534 285.93 361.706 284.14 363.453C283.196 364.374 282.478 365.509 282.197 366.873C281.917 368.231 282.117 369.588 282.622 370.881C284.629 376.026 288.497 379.598 292.774 382.257C296.988 384.877 301.809 386.735 305.982 388.344L306.083 388.382C309.721 389.785 312.747 390.962 314.891 392.294C316.268 393.149 316.989 393.885 317.331 394.546C317.235 394.594 317.129 394.645 317.013 394.699C315.191 395.548 311.308 396.982 303.239 399.106C301.656 399.523 299.947 399.925 298.159 400.345L298.01 400.38C293.57 401.424 288.59 402.595 284.716 404.308C280.98 405.96 277.044 408.668 277.044 413.355C277.044 416.075 277.735 418.377 279.002 420.281C280.255 422.164 281.973 423.513 283.815 424.505C287.339 426.405 291.722 427.194 295.139 427.809L295.323 427.842C297.643 428.26 299.41 428.587 300.618 429.04C300.972 429.173 301.192 429.282 301.325 429.361C301.233 429.572 300.976 429.911 300.259 430.396C299.165 431.137 297.612 431.802 295.667 432.621L295.527 432.68C293.464 433.548 290.992 434.589 289.049 436.009C286.991 437.513 285.155 439.721 285.155 442.935C285.155 446.502 287.405 449.986 289.93 452.992C292.525 456.081 295.913 459.231 299.063 462.16L299.134 462.225C302.028 464.916 304.704 467.409 306.669 469.677C307.647 470.805 308.382 471.804 308.863 472.673C309.326 473.509 309.471 474.077 309.485 474.427C309.374 474.542 309.106 474.765 308.514 475.077C307.207 475.765 305.024 476.479 301.821 477.171C295.467 478.543 285.822 479.683 272.975 480.682C247.317 482.677 209.363 484.08 160.5 485.791L160.453 485.792L160.406 485.796L160.588 488.289C160.406 485.796 160.405 485.796 160.405 485.796L160.403 485.796L160.397 485.797L160.378 485.798L160.311 485.803C160.254 485.808 160.172 485.815 160.066 485.824C159.855 485.842 159.55 485.87 159.163 485.91C158.391 485.99 157.291 486.117 155.966 486.308C153.323 486.687 149.747 487.322 146.063 488.345C142.402 489.363 138.505 490.799 135.297 492.833C132.108 494.856 129.295 497.67 128.412 501.536C128.288 502.075 128.225 502.828 128.535 503.618C128.867 504.464 129.492 505.01 130.116 505.324C131.148 505.843 132.381 505.824 133.253 505.767C135.147 505.644 137.989 505.077 141.524 504.371L141.762 504.324C150.506 502.579 164.775 499.732 185.026 498.675C214.762 497.689 248.954 496.455 276.537 495.098C290.33 494.419 302.49 493.709 311.621 492.982C316.184 492.619 320.017 492.249 322.931 491.874C324.386 491.687 325.64 491.495 326.655 491.296C327.612 491.108 328.543 490.88 329.236 490.568L329.472 490.462L329.681 490.309C333.299 487.67 334.843 483.198 334.059 478.053C333.284 472.967 330.257 467.107 324.646 460.967L324.532 460.842L324.401 460.734C314.897 452.811 309.951 448.5 307.537 445.933C306.674 445.014 306.272 444.456 306.091 444.154C306.432 443.762 307.101 443.209 308.224 442.495C309.486 441.691 311.037 440.855 312.769 439.923L312.836 439.887C315.08 438.679 317.6 437.323 319.755 435.825C321.88 434.349 324.01 432.499 325.075 430.17L325.301 429.675L325.301 429.131C325.301 427.142 324.057 425.035 322.082 423.306C320.025 421.506 316.932 419.873 312.577 418.814C308.524 417.828 305.414 416.883 303.348 415.798C301.815 414.994 301.254 414.336 301.061 413.842C301.171 413.732 301.333 413.599 301.572 413.448C302.165 413.074 303.055 412.704 304.287 412.354C306.767 411.649 310.032 411.183 313.75 410.657L313.938 410.631C319.109 409.9 325.088 409.056 329.779 407.15C332.181 406.174 334.437 404.849 336.106 402.952C337.743 401.092 338.722 398.786 338.812 396.027C338.815 396.014 338.819 396 338.823 395.986C338.91 395.661 338.993 395.234 339.025 394.716C339.09 393.668 338.946 392.303 338.293 390.713C336.993 387.552 333.784 383.741 326.764 379.645L326.571 379.532L326.361 379.456C321.046 377.517 315.447 375.045 311.36 372.864ZM301.504 429.499C301.499 429.499 301.48 429.484 301.457 429.45C301.498 429.482 301.509 429.499 301.504 429.499ZM309.555 474.335C309.557 474.335 309.552 474.348 309.533 474.373C309.544 474.347 309.553 474.335 309.555 474.335ZM180.507 141.755L182.237 141.751L182.842 140.13L187.262 128.299L188.522 124.924H184.92H6.48545H5.66895L5.00985 125.406C3.44219 126.552 2.73713 128.196 2.55311 129.801C2.37523 131.352 2.66411 132.943 3.12161 134.345C4.00922 137.064 5.8159 139.89 7.71577 141.275L8.37413 141.755H9.189C15.2361 141.755 23.9508 141.769 34.8841 141.786L35.7916 141.788C68.8634 141.84 120.039 141.92 180.507 141.755Z" fill="white" stroke="white" stroke-width="5"/>
<path d="M47.1836 459.508L48.9541 460.976L51.2212 460.587C55.2414 459.897 59.1257 457.733 62.7736 454.864C66.4661 451.961 70.2391 448.079 74.0524 443.479C81.6789 434.281 89.8468 421.747 98.2188 407.161C114.981 377.956 132.924 339.877 149.369 302.189C165.826 264.471 180.838 227.015 191.732 198.999C197.18 184.988 201.601 173.331 204.66 165.175C206.19 161.097 207.38 157.893 208.187 155.708C208.591 154.616 208.9 153.777 209.107 153.212C209.211 152.929 209.29 152.714 209.343 152.57L209.373 152.486L209.394 152.438L209.619 151.916C209.816 151.459 210.105 150.788 210.472 149.932C211.206 148.222 212.254 145.773 213.512 142.816C216.028 136.905 219.383 128.959 222.741 120.832C226.095 112.714 229.465 104.379 232.002 97.7016C233.268 94.3691 234.346 91.3984 235.114 89.0516C235.497 87.8823 235.821 86.8109 236.056 85.897C236.253 85.1291 236.513 84.0098 236.513 82.9619C236.513 79.039 233.392 76.7709 231.5 75.7851C229.233 74.604 226.376 73.9262 223.307 73.777C217.083 73.4743 209.201 75.2994 201.531 80.8943L200.693 81.506L200.167 82.4008C195.91 89.6453 188.586 106.259 182.458 120.693C179.361 127.988 176.519 134.848 174.453 139.882C173.419 142.4 172.579 144.462 171.996 145.897C171.705 146.614 171.478 147.174 171.324 147.555L171.149 147.99L171.103 148.102L171.092 148.13L171.089 148.138L171.088 148.14C171.088 148.14 171.088 148.14 175.726 150.008L171.088 148.14L171.003 148.351L170.973 148.45C170.974 148.447 170.974 148.445 170.974 148.445C170.97 148.443 170.892 148.644 170.652 149.209C170.379 149.849 169.985 150.76 169.473 151.934C168.451 154.277 166.981 157.622 165.126 161.831C163.762 164.926 162.191 168.488 160.439 172.458C157.431 179.276 153.891 187.3 149.957 196.234C137.505 224.516 121.082 261.985 104.949 299.566C88.8204 337.136 72.9635 374.862 61.6531 403.647C56.0036 418.024 51.4556 430.254 48.5745 439.145C47.1417 443.567 46.0726 447.31 45.5005 450.135C45.2199 451.522 45.0119 452.908 45.0005 454.139C44.9948 454.75 45.0335 455.533 45.2398 456.35C45.4324 457.114 45.9077 458.45 47.1836 459.508ZM55.001 454.289C55.0008 454.289 55.0005 454.284 55.0002 454.272C55.001 454.283 55.0011 454.29 55.001 454.289ZM251.041 44.5426C259.548 43.5085 266.5 41.3867 271.466 38.0663C276.591 34.6396 279.77 29.7661 279.77 23.8036C279.77 18.6389 277.944 13.6408 273.525 10.0594C269.264 6.60601 263.239 5 255.845 5C248.596 5 240.418 6.2938 233.856 9.24333C227.455 12.1209 221.106 17.3609 221.106 25.7755C221.106 32.6371 223.791 38.4336 229.693 41.8334C235.142 44.9719 242.533 45.5769 251.041 44.5426Z" fill="white" stroke="white" stroke-width="10"/>
</svg>
